<svg width="214" height="62" viewBox="0 0 214 62" fill="none" xmlns="http://www.w3.org/2000/svg">
<path fill-rule="evenodd" clip-rule="evenodd" d="M1.62032 33.3195C-0.587143 25.5654 -0.0897946 15.5775 0.51328 5.24215L23.4966 1.2024C25.7677 0.80324 27.2175 0.861012 29.3803 1.25355L52.1432 5.38601C52.8098 15.7876 53.9047 26.2068 50.9482 34.5862C46.7667 46.4348 38.6497 55.0619 26.8983 61.0703C14.3657 54.8758 5.35318 46.4278 1.62032 33.3197V33.3195Z" fill="url(#paint0_linear_13163_50547)"/>
<path fill-rule="evenodd" clip-rule="evenodd" d="M5.04253 33.1007C3.12758 26.375 3.55917 17.2326 4.08209 8.26705L23.7582 4.80639C25.7284 4.45998 27.4091 4.58968 29.2866 4.92216L48.8663 8.39195C49.4445 17.4146 50.3944 26.9313 47.8296 34.1993C44.2029 44.4769 37.1617 51.9602 26.9683 57.1718C16.0975 51.7987 8.27918 44.4707 5.04208 33.1007H5.04253Z" fill="url(#paint1_linear_13163_50547)"/>
<path fill-rule="evenodd" clip-rule="evenodd" d="M7.408 32.7568C5.71501 26.8113 6.09636 18.7288 6.559 10.8032L23.9536 7.74372C25.6953 7.43727 27.1809 7.55191 28.8408 7.84625L46.1502 10.9135C46.6615 18.89 47.5012 27.3029 45.2336 33.7282C44.7514 35.0954 44.1999 36.4063 43.5815 37.6632H36.9002V15.4207H32.6903V37.6632H28.8275V22.613H24.6177V37.6632H21.8749V28.2307H17.6651V37.6632H9.25057C8.51985 36.1284 7.9033 34.4962 7.40823 32.7571L7.408 32.7568Z" fill="url(#paint2_linear_13163_50547)"/>
<path fill-rule="evenodd" clip-rule="evenodd" d="M42.3233 39.9922C38.7967 45.9485 33.5864 50.5648 26.7914 54.039C19.7125 50.5402 14.0982 46.1035 10.4878 39.9922H42.3233Z" fill="url(#paint3_linear_13163_50547)"/>
<path d="M71.8343 13.9263H62.878V21.2235H70.9357V22.5426H62.878V31.3839H60.9045V12.6075H71.8346V13.9266L71.8343 13.9263ZM86.6789 13.9263H77.3063V21.2235H85.8174V22.5426H77.3063V30.0648H86.4519V31.3839H75.3322V12.6075H86.6786V13.9266L86.6789 13.9263ZM114.001 12.6072L106.329 31.3836H104.16L100.662 21.6726L96.2979 31.3836H94.0971L87.5368 12.6072H89.51L95.2088 29.6154L99.7726 19.4557L97.1876 12.6075H99.1287L100.662 17.2385L102.826 12.6075H104.799L101.524 19.4557L105.249 29.6154L112.028 12.6072H114.002H114.001ZM130.18 29.6202L129.958 31.3839C128.197 31.7956 126.557 32.0011 125.037 32.0011C121.827 32.0011 119.371 31.1219 117.666 29.363C115.947 27.6229 115.085 25.1999 115.085 22.0938C115.085 18.8008 115.993 16.3308 117.81 14.6843C119.496 13.1498 121.906 12.3828 125.037 12.3828C126.293 12.3828 127.785 12.5325 129.509 12.8364L129.958 14.7963C129.087 14.5391 128.216 14.3332 127.345 14.1787C126.455 14.0479 125.64 13.9821 124.899 13.9821C122.545 13.9821 120.692 14.5997 119.339 15.8393C117.819 17.2241 117.059 19.3102 117.059 22.0935C117.059 25.0311 117.857 27.2297 119.455 28.6937C120.845 29.9617 122.698 30.5978 125.01 30.5978C125.862 30.5978 126.724 30.5135 127.595 30.345C128.448 30.1813 129.31 29.9381 130.181 29.6202H130.18ZM148.306 31.3839H146.332V22.3182H134.767V31.3839H132.794V12.6075H134.767V20.9994H146.332V12.6075H148.306V31.3839V31.3839ZM171.49 21.6729C171.49 23.1135 171.314 24.409 170.967 25.5695C170.429 27.3472 169.53 28.7598 168.265 29.8123C166.634 31.1595 164.494 31.8329 161.844 31.8329C158.526 31.8329 155.997 30.8694 154.254 28.9423C152.624 27.1228 151.808 24.6244 151.808 21.4485C151.808 18.9035 152.689 16.7799 154.449 15.0772C156.316 13.2812 158.781 12.3831 161.844 12.3831C164.865 12.3831 167.232 13.2251 168.937 14.9089C170.638 16.5928 171.49 18.848 171.49 21.6732V21.6729ZM169.517 22.0938C169.517 19.4787 168.822 17.4536 167.427 16.0311C166.018 14.6281 164.091 13.9263 161.645 13.9263C159.032 13.9263 157.002 14.7778 155.557 16.4805C154.227 18.052 153.56 20.0729 153.56 22.5474C153.56 24.3576 154.078 25.9761 155.112 27.3985C156.521 29.3256 158.624 30.2892 161.427 30.2892C164.318 30.2892 166.459 29.4006 167.849 27.6229C168.961 26.2005 169.517 24.3576 169.517 22.0938V22.0938ZM186.326 31.3839H183.912L177.375 21.4485L178.575 21.4766C180.409 21.4766 181.799 21.1676 182.744 20.5504C183.671 19.9328 184.134 18.9785 184.134 17.6872C184.134 16.3401 183.69 15.3392 182.795 14.6887C182.114 14.1787 181.253 13.9263 180.21 13.9263H176.295V31.3836H174.321V12.6072H181.099C182.452 12.6072 183.629 13.0282 184.63 13.8701C185.617 14.7306 186.108 15.8534 186.108 17.2382C186.108 18.9032 185.524 20.2134 184.352 21.1673C183.351 21.9908 182.193 22.4025 180.877 22.4025L180.015 22.3182L186.325 31.3839H186.326ZM200.545 13.9266H191.173V21.2238H199.684V22.5429H191.173V30.0651H200.318V31.3842H189.198V12.6078H200.545V13.9269V13.9266Z" stroke="#1F613E" stroke-width="0.0214803" stroke-miterlimit="2.61313"/>
<path d="M71.8343 13.9263H62.878V21.2235H70.9357V22.5426H62.878V31.3839H60.9045V12.6075H71.8346V13.9266L71.8343 13.9263ZM86.6789 13.9263H77.3063V21.2235H85.8174V22.5426H77.3063V30.0648H86.4519V31.3839H75.3322V12.6075H86.6786V13.9266L86.6789 13.9263ZM114.001 12.6072L106.329 31.3836H104.16L100.662 21.6726L96.2979 31.3836H94.0971L87.5368 12.6072H89.51L95.2088 29.6154L99.7726 19.4557L97.1876 12.6075H99.1287L100.662 17.2385L102.826 12.6075H104.799L101.524 19.4557L105.249 29.6154L112.028 12.6072H114.002H114.001ZM130.18 29.6202L129.958 31.3839C128.197 31.7956 126.557 32.0011 125.037 32.0011C121.827 32.0011 119.371 31.1219 117.666 29.363C115.947 27.6229 115.085 25.1999 115.085 22.0938C115.085 18.8008 115.993 16.3308 117.81 14.6843C119.496 13.1498 121.906 12.3828 125.037 12.3828C126.293 12.3828 127.785 12.5325 129.509 12.8364L129.958 14.7963C129.087 14.5391 128.216 14.3332 127.345 14.1787C126.455 14.0479 125.64 13.9821 124.899 13.9821C122.545 13.9821 120.692 14.5997 119.339 15.8393C117.819 17.2241 117.059 19.3102 117.059 22.0935C117.059 25.0311 117.857 27.2297 119.455 28.6937C120.845 29.9617 122.698 30.5978 125.01 30.5978C125.862 30.5978 126.724 30.5135 127.595 30.345C128.448 30.1813 129.31 29.9381 130.181 29.6202H130.18ZM148.306 31.3839H146.332V22.3182H134.767V31.3839H132.794V12.6075H134.767V20.9994H146.332V12.6075H148.306V31.3839ZM171.49 21.6729C171.49 23.1135 171.314 24.409 170.967 25.5695C170.429 27.3472 169.53 28.7598 168.265 29.8123C166.634 31.1595 164.494 31.8329 161.844 31.8329C158.526 31.8329 155.997 30.8694 154.254 28.9423C152.624 27.1228 151.808 24.6244 151.808 21.4485C151.808 18.9035 152.689 16.7799 154.449 15.0772C156.316 13.2812 158.781 12.3831 161.844 12.3831C164.865 12.3831 167.232 13.2251 168.937 14.9089C170.638 16.5928 171.49 18.848 171.49 21.6732V21.6729ZM169.517 22.0938C169.517 19.4787 168.822 17.4536 167.427 16.0311C166.018 14.6281 164.091 13.9263 161.645 13.9263C159.032 13.9263 157.002 14.7778 155.557 16.4805C154.227 18.052 153.56 20.0729 153.56 22.5474C153.56 24.3576 154.078 25.9761 155.112 27.3985C156.521 29.3256 158.624 30.2892 161.427 30.2892C164.318 30.2892 166.459 29.4006 167.849 27.6229C168.961 26.2005 169.517 24.3576 169.517 22.0938ZM186.326 31.3839H183.912L177.375 21.4485L178.575 21.4766C180.409 21.4766 181.799 21.1676 182.744 20.5504C183.671 19.9328 184.134 18.9785 184.134 17.6872C184.134 16.3401 183.69 15.3392 182.795 14.6887C182.114 14.1787 181.253 13.9263 180.21 13.9263H176.295V31.3836H174.321V12.6072H181.099C182.452 12.6072 183.629 13.0282 184.63 13.8701C185.617 14.7306 186.108 15.8534 186.108 17.2382C186.108 18.9032 185.524 20.2134 184.352 21.1673C183.351 21.9908 182.193 22.4025 180.877 22.4025L180.015 22.3182L186.325 31.3839H186.326ZM200.545 13.9266H191.173V21.2238H199.684V22.5429H191.173V30.0651H200.318V31.3842H189.198V12.6078H200.545V13.9269V13.9266Z" fill="#1F613E" stroke="#1F613E" stroke-width="0.7"/>
<path d="M207.015 13.9212V10.3672H208.687C209.106 10.3672 209.412 10.3993 209.602 10.4625C209.794 10.5262 209.945 10.6402 210.06 10.8029C210.174 10.9667 210.231 11.1529 210.231 11.3628C210.231 11.6298 210.146 11.8498 209.973 12.0238C209.8 12.1977 209.541 12.3069 209.198 12.3524C209.368 12.4424 209.509 12.5414 209.62 12.6506C209.732 12.7587 209.882 12.9514 210.07 13.2276L210.55 13.9212H209.601L209.032 13.1451C208.828 12.87 208.689 12.696 208.612 12.6238C208.537 12.5526 208.458 12.5034 208.373 12.4766C208.289 12.4498 208.155 12.437 207.972 12.437H207.811V13.9212H207.015ZM207.811 11.8707H208.398C208.778 11.8707 209.017 11.8563 209.111 11.8273C209.205 11.7979 209.28 11.7476 209.334 11.6759C209.387 11.6047 209.414 11.5153 209.414 11.4088C209.414 11.2889 209.378 11.1931 209.308 11.1181C209.238 11.0448 209.138 10.9982 209.01 10.9795C208.945 10.9715 208.751 10.9672 208.43 10.9672H207.811V11.8707Z" fill="#1F613E" stroke="#1F613E" stroke-width="0.00299835" stroke-miterlimit="2.61313"/>
<path fill-rule="evenodd" clip-rule="evenodd" d="M208.783 8C211.06 8 212.907 9.85689 212.907 12.1467C212.907 14.4369 211.06 16.2928 208.783 16.2928C206.505 16.2928 204.658 14.4364 204.658 12.1467C204.658 9.85689 206.505 8 208.783 8Z" stroke="#1F613E" stroke-width="0.5" stroke-miterlimit="2.61313" stroke-linecap="round" stroke-linejoin="round"/>
<path d="M66.1623 42.7138H61.8547V46.0903H65.7305V46.701H61.8547V50.7917H60.9055V42.1034H66.1627L66.1623 42.7138ZM70.1383 42.9219H69.0818V42.1039H70.1383V42.9219ZM70.0305 50.7922H69.1887V44.3507H70.0305V50.7922ZM79.4777 50.7922H78.6354V46.195C78.6354 45.7967 78.4344 45.4632 78.031 45.195C77.6299 44.9263 77.1666 44.7924 76.6407 44.7924C75.9809 44.7924 75.4328 44.9834 74.9957 45.3641C74.481 45.8143 74.2223 46.4637 74.2223 47.3092V50.7922H73.38V44.3507H74.2223V45.6731C74.3203 45.2254 74.6278 44.8701 75.1426 44.6104C75.6596 44.3507 76.2547 44.2207 76.9212 44.2207C77.6188 44.2207 78.2028 44.3636 78.6754 44.6512C79.2101 44.9718 79.4777 45.4151 79.4777 45.9864V50.7922ZM87.7604 50.7922H86.9186V47.0126C86.6861 47.177 86.1096 47.398 85.1915 47.6749C83.6783 48.1341 82.9204 48.7311 82.9204 49.4672C82.9204 49.8046 83.0987 50.0578 83.4551 50.2226C83.7582 50.3591 84.1496 50.4278 84.6293 50.4278C85.1396 50.4278 85.6251 50.3458 86.0892 50.181L85.9823 50.7913C85.7675 50.8608 85.4959 50.9171 85.1662 50.96C84.8267 51.0038 84.5689 51.0252 84.3905 51.0252C83.7577 51.0252 83.2403 50.9042 82.8369 50.6617C82.331 50.3501 82.0772 49.8823 82.0772 49.2591C82.0772 48.5256 82.4917 47.9805 83.3211 47.6251C84.0968 47.3976 84.8769 47.1723 85.661 46.95C86.4988 46.6989 86.9182 46.3418 86.9182 45.8851C86.9182 45.5126 86.7531 45.2443 86.4207 45.0774C86.0937 44.9216 85.661 44.8439 85.1263 44.8439C84.6887 44.8439 84.2751 44.8825 83.882 44.9606C83.4813 45.0383 83.1294 45.1422 82.8263 45.2722L82.9199 44.5576C83.2496 44.4628 83.5931 44.3889 83.9472 44.337C84.304 44.2846 84.6736 44.2589 85.057 44.2589C85.8438 44.2589 86.4678 44.376 86.9315 44.6074C87.4835 44.8842 87.76 45.3083 87.76 45.8825L87.7604 50.7922ZM96.9937 50.7922H96.1514V46.195C96.1514 45.7967 95.9509 45.4632 95.5475 45.195C95.1463 44.9263 94.6831 44.7924 94.1568 44.7924C93.4973 44.7924 92.9488 44.9834 92.5126 45.3641C91.9979 45.8143 91.7392 46.4637 91.7392 47.3092V50.7922H90.8969V44.3507H91.7392V45.6731C91.8372 45.2254 92.1447 44.8701 92.66 44.6104C93.1769 44.3507 93.7716 44.2207 94.4376 44.2207C95.1352 44.2207 95.7197 44.3636 96.1918 44.6512C96.7266 44.9718 96.9941 45.4151 96.9941 45.9864L96.9937 50.7922ZM104.743 49.9763L104.54 50.7922C104.067 50.8789 103.595 50.9222 103.122 50.9222C102.017 50.9222 101.18 50.654 100.609 50.117C100.005 49.5544 99.702 48.6882 99.702 47.5195C99.702 46.2989 100.049 45.407 100.743 44.8443C101.295 44.3936 102.055 44.1692 103.018 44.1692C103.274 44.1692 103.541 44.1863 103.818 44.2211C104.094 44.2576 104.366 44.2988 104.633 44.3512L104.743 45.1671C104.154 44.9095 103.571 44.7795 102.988 44.7795C102.269 44.7795 101.694 44.9877 101.266 45.401C100.785 45.8679 100.544 46.5761 100.544 47.5199C100.544 48.4054 100.758 49.0891 101.184 49.5741C101.611 50.0651 102.218 50.3119 103.002 50.3119C103.51 50.3119 104.092 50.1986 104.743 49.9763ZM113.269 46.8182L113.241 47.2079H108.201C108.201 48.3504 108.459 49.1839 108.974 49.7144C109.413 50.1561 110.01 50.3767 110.768 50.3767C111.098 50.3767 111.428 50.3419 111.758 50.2724C112.079 50.2007 112.435 50.1037 112.827 49.9737L112.721 50.6879C112.025 50.8874 111.379 50.9866 110.779 50.9866C109.738 50.9866 108.923 50.714 108.335 50.1685C107.684 49.5715 107.359 48.6904 107.359 47.5195C107.359 46.3851 107.702 45.5151 108.388 44.9113C108.965 44.3984 109.679 44.1426 110.526 44.1426C111.345 44.1426 112.016 44.4155 112.534 44.961C113.024 45.4714 113.269 46.0907 113.269 46.8182ZM112.4 46.7015C112.4 46.0607 112.239 45.5757 111.916 45.2469C111.597 44.9177 111.165 44.7533 110.621 44.7533C109.765 44.7533 109.15 44.9872 108.776 45.4568C108.542 45.7426 108.388 46.1564 108.308 46.7015H112.4ZM126.794 49.9763L126.687 50.7922C125.84 50.9823 125.052 51.078 124.32 51.078C122.776 51.078 121.595 50.6711 120.775 49.8574C119.948 49.0522 119.533 47.9307 119.533 46.4933C119.533 44.9701 119.97 43.8271 120.843 43.0648C121.654 42.3554 122.813 42 124.32 42C124.924 42 125.641 42.0695 126.471 42.2099L126.687 43.1163C126.268 42.9979 125.849 42.9022 125.43 42.8305C125.002 42.77 124.609 42.7399 124.253 42.7399C123.12 42.7399 122.23 43.0258 121.579 43.5992C120.847 44.24 120.482 45.2053 120.482 46.4929C120.482 47.8526 120.866 48.8693 121.634 49.5475C122.303 50.1338 123.194 50.4282 124.306 50.4282C124.716 50.4282 125.131 50.3896 125.55 50.3115C125.96 50.2359 126.375 50.1235 126.794 49.9763ZM135.653 47.686C135.653 48.5865 135.385 49.3488 134.85 49.972C134.261 50.6578 133.459 51.0003 132.443 51.0003C131.362 51.0003 130.516 50.6578 129.902 49.972C129.35 49.3569 129.073 48.5994 129.073 47.6989C129.073 46.7727 129.345 45.9868 129.889 45.3375C130.495 44.6104 131.311 44.2469 132.336 44.2469C133.377 44.2469 134.206 44.6104 134.823 45.3375C135.376 45.9868 135.653 46.7684 135.653 47.686ZM134.957 47.8054C134.957 47.0259 134.734 46.3551 134.288 45.7924C133.79 45.1688 133.139 44.8572 132.336 44.8572C131.561 44.8572 130.95 45.1302 130.504 45.6752C130.103 46.1688 129.902 46.7813 129.902 47.5088C129.902 48.2685 130.122 48.9264 130.556 49.4805C131.039 50.087 131.668 50.3896 132.443 50.3896C133.263 50.3896 133.901 50.1256 134.355 49.5973C134.757 49.1294 134.957 48.5328 134.957 47.8054ZM148.095 50.7926H147.252V45.9851C147.252 45.6671 147.114 45.4117 146.838 45.2216C146.553 45.0396 146.21 44.9486 145.806 44.9486C145.273 44.9486 144.814 45.092 144.428 45.3774C143.994 45.6976 143.776 46.1396 143.776 46.7019V50.7926H142.933V46.0911C142.933 45.734 142.8 45.4589 142.532 45.2602C142.265 45.0606 141.94 44.9615 141.556 44.9615C141.022 44.9615 140.553 45.1173 140.152 45.4267C139.698 45.7817 139.47 46.2426 139.47 46.8079V50.7926H138.628V44.3512H139.47V45.377C139.603 45.0478 139.871 44.7774 140.272 44.5718C140.664 44.3722 141.101 44.2726 141.583 44.2726C142.046 44.2726 142.47 44.3722 142.85 44.5718C143.225 44.7705 143.497 45.0735 143.669 45.4808C143.871 45.089 144.197 44.7855 144.645 44.5718C145.082 44.3636 145.545 44.2597 146.036 44.2597C146.606 44.2597 147.09 44.3984 147.491 44.6752C147.895 44.9611 148.095 45.3641 148.095 45.8834L148.095 50.7926ZM157.447 47.7148C157.447 48.6586 157.22 49.4183 156.765 49.9874C156.239 50.6454 155.473 50.9741 154.465 50.9741C153.919 50.9741 153.436 50.8484 153.007 50.5977C152.696 50.3183 152.384 50.0411 152.072 49.7642V53.6498H151.336V44.6623C151.676 44.5761 151.952 44.5151 152.165 44.4786C152.861 44.3507 153.467 44.2855 153.984 44.2855C155.125 44.2855 155.972 44.5323 156.524 45.0237C157.139 45.5692 157.447 46.4658 157.447 47.7148ZM156.685 47.4028C156.685 46.4246 156.347 45.719 155.669 45.2838C155.181 44.9744 154.566 44.8181 153.826 44.8181C153.592 44.8181 153.351 44.8447 153.099 44.8941C152.852 44.9546 152.51 45.0821 152.072 45.2709V47.8311C152.072 48.4783 152.273 49.0629 152.674 49.5827C153.128 50.1818 153.717 50.481 154.439 50.481C155.161 50.481 155.723 50.1775 156.124 49.5719C156.499 49.0088 156.685 48.2861 156.685 47.4028ZM165.61 50.7926H164.768V47.0131C164.536 47.1774 163.959 47.3985 163.041 47.6753C161.528 48.1346 160.77 48.7316 160.77 49.4676C160.77 49.805 160.948 50.0582 161.304 50.223C161.608 50.3595 161.999 50.4282 162.479 50.4282C162.989 50.4282 163.475 50.3462 163.939 50.1814L163.832 50.7917C163.617 50.8613 163.346 50.9175 163.016 50.9604C162.677 51.0042 162.419 51.0256 162.241 51.0256C161.608 51.0256 161.091 50.9046 160.687 50.6621C160.181 50.3505 159.927 49.8827 159.927 49.2595C159.927 48.526 160.341 47.9809 161.171 47.6255C161.947 47.398 162.727 47.1727 163.511 46.9504C164.349 46.6993 164.768 46.3422 164.768 45.8855C164.768 45.513 164.603 45.2447 164.271 45.0778C163.943 44.922 163.511 44.8443 162.976 44.8443C162.539 44.8443 162.124 44.8829 161.732 44.961C161.331 45.0387 160.979 45.1426 160.676 45.2726L160.77 44.558C161.099 44.4632 161.443 44.3894 161.797 44.3374C162.154 44.2851 162.523 44.2593 162.907 44.2593C163.694 44.2593 164.318 44.3765 164.781 44.6078C165.333 44.8847 165.61 45.3087 165.61 45.883L165.61 50.7926ZM174.843 50.7926H174.001V46.1954C174.001 45.7971 173.8 45.4636 173.397 45.1954C172.996 44.9267 172.532 44.7928 172.006 44.7928C171.347 44.7928 170.798 44.9838 170.362 45.3645C169.847 45.8147 169.588 46.4641 169.588 47.3096V50.7926H168.746V44.3512H169.588V45.6735C169.687 45.2259 169.994 44.8705 170.508 44.6108C171.026 44.3512 171.62 44.2211 172.287 44.2211C172.985 44.2211 173.569 44.364 174.041 44.6516C174.576 44.9722 174.843 45.4156 174.843 45.9868L174.843 50.7926ZM183.327 44.3512L179.971 52.1171C179.766 52.6257 179.498 53.0412 179.168 53.3639C178.741 53.788 178.248 54 177.687 54C177.345 54 176.989 53.918 176.615 53.7536L176.507 52.9352C176.891 53.1948 177.243 53.3249 177.566 53.3249C178.11 53.3249 178.594 52.9352 179.022 52.1562C179.155 51.9205 179.333 51.5377 179.557 51.0029L176.922 44.3512H177.871L180.078 50.1797L182.391 44.3512H183.327ZM194.677 50.7926H189.42V42.1043H190.369V50.1818H194.677L194.677 50.7926ZM199.91 50.5827C199.864 50.6801 199.722 50.7647 199.481 50.8316C199.241 50.9012 198.969 50.9359 198.668 50.9359C198.246 50.9359 197.895 50.8668 197.61 50.7304C197.253 50.557 197.075 50.3037 197.075 49.975V44.9619H196.232V44.3516H197.075L197.088 42.9987L197.917 43.0288V44.3512H199.803V44.9615H197.917V49.4681C197.917 49.7797 198.001 50.0046 198.171 50.1432C198.332 50.2904 198.542 50.3643 198.801 50.3643C198.96 50.3643 199.134 50.3385 199.318 50.2861C199.497 50.2428 199.695 50.1733 199.909 50.0784L199.91 50.5827ZM207.978 50.7926H207.137V49.5719C206.987 49.9351 206.759 50.2342 206.455 50.4681C205.999 50.8226 205.425 51.0007 204.73 51.0007C203.873 51.0007 203.178 50.7188 202.643 50.1539C202.065 49.5505 201.774 48.7058 201.774 47.6238C201.774 46.4203 202.224 45.5091 203.123 44.8941C203.844 44.4027 204.712 44.1559 205.719 44.1559C206.013 44.1559 206.272 44.1692 206.497 44.1954C206.711 44.2318 206.922 44.2838 207.137 44.3512V42.1043H207.979L207.978 50.7926ZM207.137 47.9354V44.9615C206.958 44.8984 206.762 44.8512 206.548 44.8181C206.337 44.7924 206.082 44.7795 205.788 44.7795C204.959 44.7795 204.257 44.9834 203.684 45.3881C202.964 45.901 202.603 46.6633 202.603 47.6757C202.603 48.4204 202.799 49.0569 203.191 49.5848C203.583 50.1217 204.096 50.39 204.729 50.39C205.362 50.39 205.908 50.1861 206.362 49.7814C206.878 49.3209 207.137 48.7037 207.137 47.9354ZM212.906 50.7926H211.849V49.8707H212.906V50.7926Z" fill="#1F613E" stroke="#1F613E" stroke-width="0.5" stroke-miterlimit="2.61313"/>
<defs>
<linearGradient id="paint0_linear_13163_50547" x1="-3.05996" y1="0.592015" x2="61.5127" y2="64.9114" gradientUnits="userSpaceOnUse">
<stop stop-color="#4B4B4D"/>
<stop offset="0.25098" stop-color="#96989A"/>
<stop offset="0.458824" stop-color="#606062"/>
<stop offset="0.760784" stop-color="#96989A"/>
<stop offset="1" stop-color="#4B4B4D"/>
</linearGradient>
<linearGradient id="paint1_linear_13163_50547" x1="26.9709" y1="57.1727" x2="27.4785" y2="7.65095" gradientUnits="userSpaceOnUse">
<stop stop-color="#FEFEFE"/>
<stop offset="1" stop-color="#E6E7E8"/>
</linearGradient>
<linearGradient id="paint2_linear_13163_50547" x1="28.8278" y1="35.9574" x2="28.6684" y2="-7.8853" gradientUnits="userSpaceOnUse">
<stop stop-color="#00A859"/>
<stop offset="0.529412" stop-color="#137546"/>
<stop offset="1" stop-color="#274132"/>
</linearGradient>
<linearGradient id="paint3_linear_13163_50547" x1="27.3613" y1="68.2038" x2="28.166" y2="39.992" gradientUnits="userSpaceOnUse">
<stop stop-color="#373435"/>
<stop offset="1" stop-color="#727376"/>
</linearGradient>
</defs>
</svg>
